# xmcd
#
# Track frame offsets: 
#        150
#        29896
#        43676
#        71409
#        90360
#        120516
#        135760
#        161843
#        177687
#        191411
#        220506
#        234518
#
# Disc length: 3494 seconds
#
# Revision: 0
# Processed by: cddbd v1.5.2PL0 Copyright (c) Steve Scherf et al.
# Submitted via: ExactAudioCopy v1.0b3
#
DISCID=9f0da40c
DTITLE=Seay - In The Garden
DYEAR=2016
DGENRE=New Age
TTITLE0=Beautiful Earth
TTITLE1=Dream
TTITLE2=Oceanus
TTITLE3=In The Garden
TTITLE4=We Are One
TTITLE5=Hearts Afire
TTITLE6=Anima Mundi
TTITLE7=The Golden Spiral
TTITLE8=I Will Love You Still
TTITLE9=Seraphim
TTITLE10=Full Moon Sonata
TTITLE11=Into The Blue
EXTD=
EXTT0=
EXTT1=
EXTT2=
EXTT3=
EXTT4=
EXTT5=
EXTT6=
EXTT7=
EXTT8=
EXTT9=
EXTT10=
EXTT11=
PLAYORDER=
